<?xml version="1.0" encoding="utf-8"?>
<!-- Generator: Adobe Illustrator 15.0.0, SVG Export Plug-In . SVG Version: 6.00 Build 0)  -->
<!DOCTYPE svg PUBLIC "-//W3C//DTD SVG 1.1//EN" "http://www.w3.org/Graphics/SVG/1.1/DTD/svg11.dtd">
<svg version="1.1"
	 id="svg2" sodipodi:version="0.32" inkscape:version="0.46" sodipodi:docname="United States WIP.svg" inkscape:output_extension="org.inkscape.output.svg.inkscape" xmlns:dc="http://purl.org/dc/elements/1.1/" xmlns:cc="http://creativecommons.org/ns#" xmlns:rdf="http://www.w3.org/1999/02/22-rdf-syntax-ns#" xmlns:svg="http://www.w3.org/2000/svg" xmlns:sodipodi="http://sodipodi.sourceforge.net/DTD/sodipodi-0.dtd" xmlns:inkscape="http://www.inkscape.org/namespaces/inkscape"
	 xmlns="http://www.w3.org/2000/svg" xmlns:xlink="http://www.w3.org/1999/xlink" x="0px" y="0px" width="959px" height="593px"
	 viewBox="0 0 959 593" enable-background="new 0 0 959 593" xml:space="preserve">
<defs>
	
	
		<inkscape:perspective  id="perspective64" inkscape:persp3d-origin="479.5 : 197.66667 : 1" inkscape:vp_z="959 : 296.5 : 1" inkscape:vp_y="0 : 1000 : 0" inkscape:vp_x="0 : 296.5 : 1" sodipodi:type="inkscape:persp3d">
		</inkscape:perspective>
</defs>
<sodipodi:namedview  id="base" inkscape:pageopacity="0.0" inkscape:pageshadow="2" inkscape:window-width="1152" inkscape:window-height="814" showguides="true" inkscape:cy="298.13957" inkscape:cx="608.50443" inkscape:zoom="0.70710678" showgrid="false" pagecolor="#ffffff" bordercolor="#666666" borderopacity="1.0" objecttolerance="10.0" gridtolerance="10.0" guidetolerance="10.0" inkscape:guide-bbox="true" inkscape:current-layer="svg2" inkscape:window-y="-8" inkscape:window-x="-8">
	</sodipodi:namedview>
<path id="AK" fill="#269DD1" stroke="#FFFFFF" stroke-width="0.75" d="M158.076,453.675l-0.323,85.357l1.617,0.97l3.069,0.162
	l1.455-1.132h2.586l0.162,2.91l6.951,6.787l0.485,2.588l3.395-1.938l0.646-0.162l0.321-3.071l1.455-1.615l1.133-0.161l1.939-1.455
	l3.071,2.102l0.646,2.91l1.94,1.131l1.131,2.426l3.88,1.778l3.396,5.981l2.748,3.88l2.263,2.748l1.455,3.718l5.012,1.778
	l5.173,2.102l0.973,4.365l0.482,3.071l-0.97,3.395l-1.778,2.264l-1.616-0.809l-1.455-3.071l-2.746-1.455l-1.778-1.132l-0.811,0.81
	l1.455,2.748l0.161,3.72l-1.131,0.482l-1.938-1.938l-2.104-1.294l0.485,1.617l1.293,1.776l-0.811,0.811c0,0-0.808-0.323-1.293-0.973
	c-0.483-0.646-2.102-3.395-2.102-3.395l-0.97-2.265c0,0-0.323,1.295-0.973,0.972c-0.646-0.323-1.293-1.455-1.293-1.455l1.778-1.94
	l-1.455-1.455v-5.011h-0.81l-0.809,3.396l-1.132,0.483l-0.97-3.719l-0.646-3.718l-0.809-0.485l0.322,5.658v1.132l-1.454-1.294
	l-3.559-5.979l-2.102-0.485l-0.646-3.719l-1.616-2.909l-1.615-1.132v-2.266l2.102-1.293l-0.483-0.321l-2.588,0.646l-3.395-2.425
	l-2.587-2.91l-4.852-2.586l-4.042-2.587l1.293-3.233v-1.614l-1.775,1.614l-2.91,1.133l-3.719-1.133l-5.658-2.425h-5.496
	l-0.646,0.485l-6.468-3.88l-2.102-0.324l-2.748-5.819l-3.558,0.323l-3.558,1.455l0.485,4.526l1.132-2.91l0.97,0.322l-1.455,4.364
	l3.233-2.748l0.646,1.616l-3.88,4.365l-1.293-0.323l-0.483-1.938l-1.293-0.81l-1.295,1.131l-2.747-1.776l-3.071,2.103l-1.778,2.104
	l-3.395,2.102l-4.688-0.162l-0.483-2.102l3.719-0.646v-1.293l-2.265-0.646l0.971-2.427l2.264-3.88v-1.776l0.161-0.81l4.365-2.264
	l0.97,1.293h2.749l-1.294-2.586l-3.718-0.323l-5.014,2.748l-2.425,3.396l-1.776,2.587l-1.134,2.263l-4.202,1.455l-3.07,2.587
	l-0.323,1.616l2.263,0.971l0.811,2.104l-2.748,3.23l-6.467,4.203l-7.762,4.204l-2.102,1.131l-5.335,1.132l-5.335,2.266l1.777,1.293
	l-1.454,1.455l-0.484,1.132l-2.748-0.973l-3.233,0.162l-0.809,2.266h-0.97l0.322-2.428l-3.558,1.295l-2.91,0.971l-3.395-1.293
	l-2.91,1.938h-3.233l-2.102,1.294l-1.616,0.81l-2.102-0.323l-2.587-1.132l-2.265,0.646l-0.971,0.971l-1.616-1.133v-1.938
	l3.071-1.294l6.305,0.646l4.365-1.615l2.102-2.103l2.91-0.646l1.778-0.81l2.748,0.162l1.616,1.293l0.971-0.323l2.263-2.748
	l3.071-0.971l3.396-0.646l1.293-0.322l0.646,0.484h0.809l1.294-3.72l4.042-1.455l1.938-3.718l2.264-4.526l1.616-1.454l0.323-2.588
	l-1.616,1.295l-3.395,0.646l-0.647-2.425l-1.293-0.323l-0.97,0.97l-0.162,2.91l-1.454-0.162l-1.455-5.818l-1.294,1.293l-1.131-0.484
	l-0.324-1.939l-4.041,0.161l-2.102,1.133l-2.587-0.322l1.454-1.455l0.484-2.587l-0.646-1.939l1.453-0.97l1.295-0.162l-0.646-1.778
	V526.1l-0.971-0.971l-0.81,1.455H54.92l-1.455-1.293l-0.646-3.88l-2.103-3.559v-0.97l2.103-0.809l0.161-2.104l1.132-1.132
	l-0.809-0.484l-1.294,0.484l-1.131-2.748l0.97-5.012l4.526-3.233l2.587-1.614l1.938-3.72l2.747-1.294l2.588,1.132l0.322,2.427
	l2.426-0.323l3.232-2.425l1.616,0.646l0.971,0.646h1.616l2.264-1.293l0.81-4.365c0,0,0.321-2.909,0.971-3.396
	c0.646-0.483,0.97-0.97,0.97-0.97l-1.132-1.938l-2.587,0.809l-3.232,0.809l-1.938-0.483l-3.558-1.778l-5.013-0.161l-3.557-3.719
	l0.484-3.88l0.646-2.425l-2.103-1.778l-1.938-3.718l0.483-0.811l6.79-0.483h2.11l0.971,0.971h0.646l-0.162-1.617l3.88-0.646
	l2.587,0.321l1.454,1.134l-1.454,2.102l-0.483,1.455l2.748,1.616l5.012,1.776l1.778-0.97l-2.266-4.365l-0.97-3.231l0.97-0.81
	l-3.395-1.938l-0.485-1.132l0.485-1.616l-0.81-3.88l-2.909-4.688l-2.427-4.203l2.91-1.938h3.233l1.777,0.646l4.202-0.162
	l3.719-3.556l1.133-3.072l3.719-2.425l1.616,0.972l2.748-0.646l3.719-2.102l1.132-0.161l0.971,0.808l4.525-0.161l2.748-3.07h1.132
	l3.558,2.426l1.938,2.102l-0.483,1.131l0.646,1.132l1.616-1.614l3.88,0.321l0.322,3.72l1.939,1.455l7.113,0.646l6.305,4.203
	l1.455-0.97l5.173,2.587l2.104-0.646l1.938-0.809l4.853,1.938L158.076,453.675z M42.974,482.612l2.104,5.335l-0.161,0.97
	l-2.91-0.323l-1.778-4.041l-1.776-1.455h-2.427l-0.162-2.587l1.778-2.425l1.132,2.425l1.455,1.455L42.974,482.612z M40.387,516.076
	l3.719,0.809l3.72,0.97l0.809,0.972l-1.616,3.719l-3.072-0.162l-3.395-3.557L40.387,516.076z M19.695,502.012l1.134,2.587
	l1.132,1.616l-1.132,0.811l-2.104-3.071v-1.94L19.695,502.012L19.695,502.012z M5.953,575.083l3.395-2.264l3.396-0.972l2.587,0.323
	l0.482,1.616l1.94,0.485l1.938-1.94l-0.321-1.616l2.748-0.646l2.908,2.586l-1.132,1.776l-4.362,1.134l-2.749-0.484l-3.72-1.132
	L8.7,575.405l-1.616,0.322L5.953,575.083z M54.937,570.556l1.616,1.94l2.103-1.616l-1.453-1.294L54.937,570.556z M57.847,573.628
	l1.132-2.264l2.104,0.322l-0.811,1.939L57.847,573.628L57.847,573.628z M81.449,571.688l1.453,1.776l0.972-1.132l-0.811-1.939
	L81.449,571.688z M90.179,559.24l1.132,5.817l2.91,0.811l5.011-2.91l4.365-2.587l-1.616-2.425l0.484-2.425l-2.104,1.293l-2.908-0.81
	l1.615-1.132l1.939,0.809l3.88-1.776l0.485-1.455l-2.425-0.811l0.808-1.938l-2.748,1.938l-4.688,3.559l-4.851,2.91L90.179,559.24z
	 M132.534,539.354l2.425-1.454l-0.972-1.778l-1.776,0.97L132.534,539.354z"/>
</svg>
