<?xml version="1.0" encoding="utf-8"?>
<!-- Generator: Adobe Illustrator 15.0.0, SVG Export Plug-In . SVG Version: 6.00 Build 0)  -->
<!DOCTYPE svg PUBLIC "-//W3C//DTD SVG 1.1//EN" "http://www.w3.org/Graphics/SVG/1.1/DTD/svg11.dtd">
<svg version="1.1"
	 id="svg2" sodipodi:version="0.32" inkscape:version="0.46" sodipodi:docname="United States WIP.svg" inkscape:output_extension="org.inkscape.output.svg.inkscape" xmlns:dc="http://purl.org/dc/elements/1.1/" xmlns:cc="http://creativecommons.org/ns#" xmlns:rdf="http://www.w3.org/1999/02/22-rdf-syntax-ns#" xmlns:svg="http://www.w3.org/2000/svg" xmlns:sodipodi="http://sodipodi.sourceforge.net/DTD/sodipodi-0.dtd" xmlns:inkscape="http://www.inkscape.org/namespaces/inkscape"
	 xmlns="http://www.w3.org/2000/svg" xmlns:xlink="http://www.w3.org/1999/xlink" x="0px" y="0px" width="959px" height="593px"
	 viewBox="0 0 959 593" enable-background="new 0 0 959 593" xml:space="preserve">
<defs>
	
	
		<inkscape:perspective  id="perspective64" inkscape:persp3d-origin="479.5 : 197.66667 : 1" inkscape:vp_z="959 : 296.5 : 1" inkscape:vp_y="0 : 1000 : 0" inkscape:vp_x="0 : 296.5 : 1" sodipodi:type="inkscape:persp3d">
		</inkscape:perspective>
</defs>
<sodipodi:namedview  id="base" inkscape:pageopacity="0.0" inkscape:pageshadow="2" inkscape:window-width="1152" inkscape:window-height="814" showguides="true" inkscape:cy="298.13957" inkscape:cx="608.50443" inkscape:zoom="0.70710678" showgrid="false" pagecolor="#ffffff" bordercolor="#666666" borderopacity="1.0" objecttolerance="10.0" gridtolerance="10.0" guidetolerance="10.0" inkscape:guide-bbox="true" inkscape:current-layer="svg2" inkscape:window-y="-8" inkscape:window-x="-8">
	</sodipodi:namedview>
<path id="AR" sodipodi:nodetypes="cccccccccccccccccccccccccccccccccccccccc" fill="#269DD1" stroke="#FFFFFF" stroke-width="0.75" d="
	M593.823,343.053l-3.979,0.717l-5.112-0.633l0.421-1.604l2.979-2.566l0.941-3.656l-1.829-2.973l-78.418,2.516l1.603,6.858v8.229
	l1.372,10.975l0.229,37.838l2.286,1.943l2.974-1.372l2.742,1.144l0.683,6.572l55.621-1.141l1.146-2.09l-0.287-3.552l-1.825-2.972
	l1.601-1.484l-1.601-2.513l0.686-2.51l1.369-5.605l2.518-2.063l-0.686-2.284l3.657-5.372l2.742-1.368l-0.111-1.492l-0.348-1.826
	l2.857-5.6l2.402-1.257l0.385-3.429l1.771-1.24l-3.144-0.482l-1.342-4.013l2.805-2.377l0.55-2.021l1.279-4.047L593.823,343.053z"/>
</svg>
