<?xml version="1.0" encoding="utf-8"?>
<!-- Generator: Adobe Illustrator 15.0.0, SVG Export Plug-In . SVG Version: 6.00 Build 0)  -->
<!DOCTYPE svg PUBLIC "-//W3C//DTD SVG 1.1//EN" "http://www.w3.org/Graphics/SVG/1.1/DTD/svg11.dtd">
<svg version="1.1"
	 id="svg2" sodipodi:version="0.32" inkscape:version="0.46" sodipodi:docname="United States WIP.svg" inkscape:output_extension="org.inkscape.output.svg.inkscape" xmlns:dc="http://purl.org/dc/elements/1.1/" xmlns:cc="http://creativecommons.org/ns#" xmlns:rdf="http://www.w3.org/1999/02/22-rdf-syntax-ns#" xmlns:svg="http://www.w3.org/2000/svg" xmlns:sodipodi="http://sodipodi.sourceforge.net/DTD/sodipodi-0.dtd" xmlns:inkscape="http://www.inkscape.org/namespaces/inkscape"
	 xmlns="http://www.w3.org/2000/svg" xmlns:xlink="http://www.w3.org/1999/xlink" x="0px" y="0px" width="959px" height="593px"
	 viewBox="0 0 959 593" enable-background="new 0 0 959 593" xml:space="preserve">
<defs>
	
	
		<inkscape:perspective  id="perspective64" inkscape:persp3d-origin="479.5 : 197.66667 : 1" inkscape:vp_z="959 : 296.5 : 1" inkscape:vp_y="0 : 1000 : 0" inkscape:vp_x="0 : 296.5 : 1" sodipodi:type="inkscape:persp3d">
		</inkscape:perspective>
</defs>
<sodipodi:namedview  id="base" inkscape:pageopacity="0.0" inkscape:pageshadow="2" inkscape:window-width="1152" inkscape:window-height="814" showguides="true" inkscape:cy="298.13957" inkscape:cx="608.50443" inkscape:zoom="0.70710678" showgrid="false" pagecolor="#ffffff" bordercolor="#666666" borderopacity="1.0" objecttolerance="10.0" gridtolerance="10.0" guidetolerance="10.0" inkscape:guide-bbox="true" inkscape:current-layer="svg2" inkscape:window-y="-8" inkscape:window-x="-8">
	</sodipodi:namedview>
<path id="HI" fill="#269DD1" stroke="#FFFFFF" stroke-width="0.75" d="M233.087,519.31l1.938-3.557l2.265-0.323l0.321,0.811
	l-2.102,3.069H233.087z M243.272,515.591l6.146,2.587l2.102-0.323l1.616-3.88l-0.646-3.395l-4.201-0.485l-4.041,1.778
	L243.272,515.591z M273.988,525.614l3.721,5.496l2.425-0.323l1.132-0.484l1.454,1.293l3.719-0.161l0.971-1.455l-2.909-1.776
	l-1.939-3.719l-2.102-3.559l-5.82,2.91L273.988,525.614z M294.196,534.506l1.293-1.938l4.688,0.971l0.646-0.485l6.145,0.646
	l-0.323,1.293l-2.586,1.455l-4.365-0.323L294.196,534.506z M299.53,539.679l1.94,3.88l3.071-1.132l0.321-1.616l-1.616-2.102
	l-3.719-0.323L299.53,539.679L299.53,539.679z M306.482,538.547l2.263-2.909l4.688,2.427l4.365,1.131l4.362,2.749v1.938
	l-3.557,1.778l-4.85,0.97l-2.427-1.455L306.482,538.547z M323.133,554.066l1.614-1.294l3.396,1.615l7.599,3.559l3.396,2.102
	l1.616,2.425l1.938,4.365l4.041,2.587l-0.323,1.293l-3.88,3.233l-4.203,1.455l-1.455-0.647l-3.069,1.778l-2.425,3.231l-2.266,2.91
	l-1.775-0.162l-3.559-2.586l-0.323-4.524l0.646-2.425l-1.617-5.658l-2.102-1.778l-0.161-2.587l2.263-0.97l2.104-3.071l0.483-0.971
	l-1.616-1.778L323.133,554.066z"/>
</svg>
