<?xml version="1.0" encoding="utf-8"?>
<!-- Generator: Adobe Illustrator 15.0.0, SVG Export Plug-In . SVG Version: 6.00 Build 0)  -->
<!DOCTYPE svg PUBLIC "-//W3C//DTD SVG 1.1//EN" "http://www.w3.org/Graphics/SVG/1.1/DTD/svg11.dtd">
<svg version="1.1"
	 id="svg2" sodipodi:version="0.32" inkscape:version="0.46" sodipodi:docname="United States WIP.svg" inkscape:output_extension="org.inkscape.output.svg.inkscape" xmlns:dc="http://purl.org/dc/elements/1.1/" xmlns:cc="http://creativecommons.org/ns#" xmlns:rdf="http://www.w3.org/1999/02/22-rdf-syntax-ns#" xmlns:svg="http://www.w3.org/2000/svg" xmlns:sodipodi="http://sodipodi.sourceforge.net/DTD/sodipodi-0.dtd" xmlns:inkscape="http://www.inkscape.org/namespaces/inkscape"
	 xmlns="http://www.w3.org/2000/svg" xmlns:xlink="http://www.w3.org/1999/xlink" x="0px" y="0px" width="959px" height="593px"
	 viewBox="0 0 959 593" enable-background="new 0 0 959 593" xml:space="preserve">
<defs>
	
	
		<inkscape:perspective  id="perspective64" inkscape:persp3d-origin="479.5 : 197.66667 : 1" inkscape:vp_z="959 : 296.5 : 1" inkscape:vp_y="0 : 1000 : 0" inkscape:vp_x="0 : 296.5 : 1" sodipodi:type="inkscape:persp3d">
		</inkscape:perspective>
</defs>
<sodipodi:namedview  id="base" inkscape:pageopacity="0.0" inkscape:pageshadow="2" inkscape:window-width="1152" inkscape:window-height="814" showguides="true" inkscape:cy="298.13957" inkscape:cx="608.50443" inkscape:zoom="0.70710678" showgrid="false" pagecolor="#ffffff" bordercolor="#666666" borderopacity="1.0" objecttolerance="10.0" gridtolerance="10.0" guidetolerance="10.0" inkscape:guide-bbox="true" inkscape:current-layer="svg2" inkscape:window-y="-8" inkscape:window-x="-8">
	</sodipodi:namedview>
<path id="ID" sodipodi:nodetypes="ccccccccccccccccccccccccccccccccccccccccccccccccccccccccccc" fill="#269DD1" stroke="#FFFFFF" stroke-width="0.75" d="
	M148.479,176.484l8.771-35.221l1.372-4.229l2.515-5.944l-1.257-2.286l-2.518,0.114l-0.8-1.029l0.457-1.143l0.343-3.086l4.459-5.487
	l1.828-0.458l1.146-1.143l0.571-3.201l0.913-0.686l3.889-5.83l3.886-4.344l0.229-3.771l-3.432-2.629l-1.535-4.401l13.624-63.342
	l13.52,2.528l-4.407,21.383l3.56,7.485l-1.58,4.661l1.971,4.642l3.139,1.255l3.835,9.557l3.514,4.437l0.509,1.143l3.341,1.144
	l0.369,2.097l-6.974,17.376l-0.165,2.566l2.633,3.321l0.903-0.049l4.911-3.025l0.678-1.095l1.563,0.659l-0.278,5.354l2.739,12.583
	l3.918,3.178l1.681,2.166l-0.717,4.084l1.066,2.807l1.062,1.091l2.479-2.352l2.849,0.049l2.919,1.335l2.78-0.682l3.794-0.16
	l3.979,1.6l2.744-0.297l0.496-3.037l2.935-0.765l1.261,1.516l0.438,2.945l1.427,1.213l-8.389,53.609
	C243.438,194.688,155.472,177.988,148.479,176.484z"/>
</svg>
