<?xml version="1.0" encoding="utf-8"?>
<!-- Generator: Adobe Illustrator 15.0.0, SVG Export Plug-In . SVG Version: 6.00 Build 0)  -->
<!DOCTYPE svg PUBLIC "-//W3C//DTD SVG 1.1//EN" "http://www.w3.org/Graphics/SVG/1.1/DTD/svg11.dtd">
<svg version="1.1"
	 id="svg2" sodipodi:version="0.32" inkscape:version="0.46" sodipodi:docname="United States WIP.svg" inkscape:output_extension="org.inkscape.output.svg.inkscape" xmlns:dc="http://purl.org/dc/elements/1.1/" xmlns:cc="http://creativecommons.org/ns#" xmlns:rdf="http://www.w3.org/1999/02/22-rdf-syntax-ns#" xmlns:svg="http://www.w3.org/2000/svg" xmlns:sodipodi="http://sodipodi.sourceforge.net/DTD/sodipodi-0.dtd" xmlns:inkscape="http://www.inkscape.org/namespaces/inkscape"
	 xmlns="http://www.w3.org/2000/svg" xmlns:xlink="http://www.w3.org/1999/xlink" x="0px" y="0px" width="959px" height="593px"
	 viewBox="0 0 959 593" enable-background="new 0 0 959 593" xml:space="preserve">
<defs>
	
	
		<inkscape:perspective  id="perspective64" inkscape:persp3d-origin="479.5 : 197.66667 : 1" inkscape:vp_z="959 : 296.5 : 1" inkscape:vp_y="0 : 1000 : 0" inkscape:vp_x="0 : 296.5 : 1" sodipodi:type="inkscape:persp3d">
		</inkscape:perspective>
</defs>
<sodipodi:namedview  id="base" inkscape:pageopacity="0.0" inkscape:pageshadow="2" inkscape:window-width="1152" inkscape:window-height="814" showguides="true" inkscape:cy="298.13957" inkscape:cx="608.50443" inkscape:zoom="0.70710678" showgrid="false" pagecolor="#ffffff" bordercolor="#666666" borderopacity="1.0" objecttolerance="10.0" gridtolerance="10.0" guidetolerance="10.0" inkscape:guide-bbox="true" inkscape:current-layer="svg2" inkscape:window-y="-8" inkscape:window-x="-8">
	</sodipodi:namedview>
<path id="IN" fill="#269DD1" stroke="#FFFFFF" stroke-width="0.75" d="M619.57,299.971l0.065-2.855l0.482-4.527l2.266-2.91
	l1.776-3.88l2.586-4.203l-0.482-5.82l-1.778-2.748l-0.323-3.233l0.81-5.496l-0.484-6.952l-1.294-16.004l-1.293-15.358l-0.971-11.72
	l3.069,0.889l1.455,0.97l1.134-0.323l2.102-1.94l2.829-1.617l5.093-0.162l21.986-2.263l5.575-0.533l1.504,15.957l4.251,36.841
	l0.599,5.771l-0.372,2.263l1.229,1.795l0.097,1.373l-2.521,1.6l-3.539,1.551l-3.202,0.55l-0.6,4.867l-4.575,3.313l-2.796,4.01
	l0.323,2.376l-0.582,1.534h-3.326l-1.586-1.616l-2.492,1.262l-2.684,1.503l0.161,3.055l-1.193,0.258l-0.468-1.019l-2.167-1.503
	l-3.25,1.341l-1.552,3.006l-1.438-0.811l-1.455-1.6l-4.464,0.485l-5.594,0.97L619.57,299.971z"/>
</svg>
