<?xml version="1.0" encoding="utf-8"?>
<!-- Generator: Adobe Illustrator 15.0.0, SVG Export Plug-In . SVG Version: 6.00 Build 0)  -->
<!DOCTYPE svg PUBLIC "-//W3C//DTD SVG 1.1//EN" "http://www.w3.org/Graphics/SVG/1.1/DTD/svg11.dtd">
<svg version="1.1"
	 id="svg2" sodipodi:version="0.32" inkscape:version="0.46" sodipodi:docname="United States WIP.svg" inkscape:output_extension="org.inkscape.output.svg.inkscape" xmlns:dc="http://purl.org/dc/elements/1.1/" xmlns:cc="http://creativecommons.org/ns#" xmlns:rdf="http://www.w3.org/1999/02/22-rdf-syntax-ns#" xmlns:svg="http://www.w3.org/2000/svg" xmlns:sodipodi="http://sodipodi.sourceforge.net/DTD/sodipodi-0.dtd" xmlns:inkscape="http://www.inkscape.org/namespaces/inkscape"
	 xmlns="http://www.w3.org/2000/svg" xmlns:xlink="http://www.w3.org/1999/xlink" x="0px" y="0px" width="959px" height="593px"
	 viewBox="0 0 959 593" enable-background="new 0 0 959 593" xml:space="preserve">
<defs>
	
	
		<inkscape:perspective  id="perspective64" inkscape:persp3d-origin="479.5 : 197.66667 : 1" inkscape:vp_z="959 : 296.5 : 1" inkscape:vp_y="0 : 1000 : 0" inkscape:vp_x="0 : 296.5 : 1" sodipodi:type="inkscape:persp3d">
		</inkscape:perspective>
</defs>
<sodipodi:namedview  id="base" inkscape:pageopacity="0.0" inkscape:pageshadow="2" inkscape:window-width="1152" inkscape:window-height="814" showguides="true" inkscape:cy="298.13957" inkscape:cx="608.50443" inkscape:zoom="0.70710678" showgrid="false" pagecolor="#ffffff" bordercolor="#666666" borderopacity="1.0" objecttolerance="10.0" gridtolerance="10.0" guidetolerance="10.0" inkscape:guide-bbox="true" inkscape:current-layer="svg2" inkscape:window-y="-8" inkscape:window-x="-8">
	</sodipodi:namedview>
<path id="IA" sodipodi:nodetypes="ccccccccccccccccccccccccccccccccccccccccccccccccccccccc" fill="#269DD1" stroke="#FFFFFF" stroke-width="0.75" d="
	M569.192,199.584l0.264,2.786l2.226,0.577l0.954,1.225l0.5,1.855l3.793,3.359l0.686,2.391l-0.674,3.425l-1.582,3.232l-0.8,2.742
	l-2.173,1.602l-1.715,0.572l-5.579,1.86l-1.394,3.849l0.729,1.372l1.841,1.683l-0.283,4.037l-1.764,1.538l-0.771,1.644l0.127,2.776
	l-1.887,0.458l-1.625,1.105l-0.279,1.353l0.279,2.115l-1.551,1.116l-2.471-3.133l-1.265-2.45l-65.734,2.515l-0.919,0.166
	l-2.053-4.516l-0.229-6.63l-1.603-4.115l-0.687-5.258l-2.286-3.658l-0.914-4.801l-2.743-7.544l-1.144-5.373l-1.372-2.172
	l-1.602-2.743l1.953-4.844l1.372-5.716l-2.743-2.058l-0.457-2.744l0.914-2.515h1.715l82.654-1.27l0.834,4.183l2.252,1.561
	l0.257,1.423l-2.027,3.389l0.188,3.206l2.517,3.798l2.524,1.294l3.08,0.503L569.192,199.584z"/>
</svg>
