<?xml version="1.0" encoding="utf-8"?>
<!-- Generator: Adobe Illustrator 15.0.0, SVG Export Plug-In . SVG Version: 6.00 Build 0)  -->
<!DOCTYPE svg PUBLIC "-//W3C//DTD SVG 1.1//EN" "http://www.w3.org/Graphics/SVG/1.1/DTD/svg11.dtd">
<svg version="1.1"
	 id="svg2" sodipodi:version="0.32" inkscape:version="0.46" sodipodi:docname="United States WIP.svg" inkscape:output_extension="org.inkscape.output.svg.inkscape" xmlns:dc="http://purl.org/dc/elements/1.1/" xmlns:cc="http://creativecommons.org/ns#" xmlns:rdf="http://www.w3.org/1999/02/22-rdf-syntax-ns#" xmlns:svg="http://www.w3.org/2000/svg" xmlns:sodipodi="http://sodipodi.sourceforge.net/DTD/sodipodi-0.dtd" xmlns:inkscape="http://www.inkscape.org/namespaces/inkscape"
	 xmlns="http://www.w3.org/2000/svg" xmlns:xlink="http://www.w3.org/1999/xlink" x="0px" y="0px" width="959px" height="593px"
	 viewBox="0 0 959 593" enable-background="new 0 0 959 593" xml:space="preserve">
<defs>
	
	
		<inkscape:perspective  id="perspective64" inkscape:persp3d-origin="479.5 : 197.66667 : 1" inkscape:vp_z="959 : 296.5 : 1" inkscape:vp_y="0 : 1000 : 0" inkscape:vp_x="0 : 296.5 : 1" sodipodi:type="inkscape:persp3d">
		</inkscape:perspective>
</defs>
<sodipodi:namedview  id="base" inkscape:pageopacity="0.0" inkscape:pageshadow="2" inkscape:window-width="1152" inkscape:window-height="814" showguides="true" inkscape:cy="298.13957" inkscape:cx="608.50443" inkscape:zoom="0.70710678" showgrid="false" pagecolor="#ffffff" bordercolor="#666666" borderopacity="1.0" objecttolerance="10.0" gridtolerance="10.0" guidetolerance="10.0" inkscape:guide-bbox="true" inkscape:current-layer="svg2" inkscape:window-y="-8" inkscape:window-x="-8">
	</sodipodi:namedview>
<path id="LA" sodipodi:nodetypes="ccccccccccccccccccccccccccccccccccccccccccccscccccccccccccccccccccccccccccsccccccccccccccccccccccccccccc" fill="#269DD1" stroke="#FFFFFF" stroke-width="0.75" d="
	M607.967,459.161l-3.285-3.166l1.01-5.5l-0.661-0.896l-9.262,1.009l-25.028,0.459l-0.684-2.396l0.912-8.456l3.314-5.943l5.031-8.691
	l-0.574-2.398l1.257-0.681l0.459-1.952l-2.284-2.057l-0.112-1.941l-1.83-4.346l-0.147-6.339l-55.474,0.924l0.028,9.573l0.686,9.374
	l0.688,3.887l2.515,4.115l0.914,5.027l4.345,5.487l0.229,3.2l0.686,0.687l-0.686,8.459l-2.975,5.029l1.603,2.06l-0.688,2.515
	l-0.687,7.314l-1.371,3.2l0.122,3.617l4.687-1.521l12.113,0.207l10.347,3.557l6.468,1.132l3.719-1.455l3.231,1.132l3.232,0.972
	l0.809-2.104l-3.231-1.132l-2.586,0.485l-2.749-1.617c0,0,0.162-1.293,0.809-1.455c0.646-0.161,3.071-0.97,3.071-0.97l1.778,1.455
	l1.776-0.972l3.233,0.646l1.455,2.425l0.323,2.264l4.524,0.323l1.778,1.778l-0.811,1.616l-1.293,0.809l1.616,1.616l8.407,3.557
	l3.556-1.293l0.973-2.425l2.586-0.647l1.776-1.454l1.294,0.972l0.81,2.909l-2.264,0.809l0.646,0.646l3.396-1.293l2.265-3.395
	l0.809-0.485l-2.102-0.321l0.808-1.616l-0.161-1.455l2.104-0.485l1.131-1.293l0.646,0.81c0,0-0.161,3.07,0.646,3.07
	c0.807,0,4.203,0.646,4.203,0.646l4.041,1.938l0.971,1.455h2.909l1.132,0.972l2.264-3.071v-1.455h-1.294l-3.395-2.748l-5.82-0.809
	l-3.23-2.265l1.131-2.748l2.264,0.323l0.162-0.646l-1.778-0.973v-0.482h3.233l1.775-3.071l-1.293-1.94l-0.321-2.748l-1.455,0.161
	l-1.939,2.104l-0.646,2.587l-3.071-0.646l-0.97-1.776l1.776-1.94l1.903-3.444l-1.063-2.411L607.967,459.161z"/>
</svg>
