<?xml version="1.0" encoding="utf-8"?>
<!-- Generator: Adobe Illustrator 15.0.0, SVG Export Plug-In . SVG Version: 6.00 Build 0)  -->
<!DOCTYPE svg PUBLIC "-//W3C//DTD SVG 1.1//EN" "http://www.w3.org/Graphics/SVG/1.1/DTD/svg11.dtd">
<svg version="1.1"
	 id="svg2" sodipodi:version="0.32" inkscape:version="0.46" sodipodi:docname="United States WIP.svg" inkscape:output_extension="org.inkscape.output.svg.inkscape" xmlns:dc="http://purl.org/dc/elements/1.1/" xmlns:cc="http://creativecommons.org/ns#" xmlns:rdf="http://www.w3.org/1999/02/22-rdf-syntax-ns#" xmlns:svg="http://www.w3.org/2000/svg" xmlns:sodipodi="http://sodipodi.sourceforge.net/DTD/sodipodi-0.dtd" xmlns:inkscape="http://www.inkscape.org/namespaces/inkscape"
	 xmlns="http://www.w3.org/2000/svg" xmlns:xlink="http://www.w3.org/1999/xlink" x="0px" y="0px" width="959px" height="593px"
	 viewBox="0 0 959 593" enable-background="new 0 0 959 593" xml:space="preserve">
<defs>
	
	
		<inkscape:perspective  id="perspective64" inkscape:persp3d-origin="479.5 : 197.66667 : 1" inkscape:vp_z="959 : 296.5 : 1" inkscape:vp_y="0 : 1000 : 0" inkscape:vp_x="0 : 296.5 : 1" sodipodi:type="inkscape:persp3d">
		</inkscape:perspective>
</defs>
<sodipodi:namedview  id="base" inkscape:pageopacity="0.0" inkscape:pageshadow="2" inkscape:window-width="1152" inkscape:window-height="814" showguides="true" inkscape:cy="298.13957" inkscape:cx="608.50443" inkscape:zoom="0.70710678" showgrid="false" pagecolor="#ffffff" bordercolor="#666666" borderopacity="1.0" objecttolerance="10.0" gridtolerance="10.0" guidetolerance="10.0" inkscape:guide-bbox="true" inkscape:current-layer="svg2" inkscape:window-y="-8" inkscape:window-x="-8">
	</sodipodi:namedview>
<path id="MD" sodipodi:nodetypes="ccccccccccccccccccccccccccccccccccccccccccccccccccsccccccccccccccccccccccccccccsccc" fill="#269DD1" stroke="#FFFFFF" stroke-width="0.75" d="
	M839.791,252.415l-6.01,1.204l-5.144,0.118l-1.844-6.923l-1.927-9.169l-2.57-6.188l-1.288-4.398l-7.507,1.623l-14.876,2.823
	l-37.451,7.551l1.132,5.012l0.97,5.658l0.323-0.324l2.102-2.425l2.265-2.618l2.425-0.615l1.455-1.455l1.776-2.586l1.296,0.646
	l2.907-0.323l2.587-2.102l2.009-1.453l1.846-0.485l1.644,1.13l2.91,1.455l1.94,1.778l1.212,1.536l4.122,1.698v2.91l5.497,1.293
	l1.145,0.542l1.412-2.028l2.882,1.97l-1.276,2.482l-0.768,3.985l-1.777,2.587v2.102l0.646,1.778l5.064,1.355l4.311-0.062l3.072,0.97
	l2.102,0.323l0.97-2.102l-1.454-2.102v-1.778l-2.426-2.102l-2.102-5.496l1.293-5.335l-0.161-2.102l-1.294-1.293
	c0,0,1.455-1.617,1.455-2.263s0.485-2.102,0.485-2.102l1.938-1.293l1.94-1.617l0.483,0.97l-1.455,1.617l-1.294,3.718l0.323,1.131
	l1.778,0.323l0.483,5.497l-2.102,0.97l0.323,3.556l0.483-0.162l1.131-1.94l1.617,1.778l-1.617,1.293l-0.321,3.395l2.587,3.395
	l3.88,0.485l1.616-0.808l3.235,4.183l1.358,0.536l6.653-2.797l2.008-4.024L839.791,252.415z M823.822,261.443l1.132,2.506
	l0.162,1.778l1.131,1.859c0,0,0.892-0.889,0.892-1.212s-0.729-3.071-0.729-3.071l-0.728-2.344L823.822,261.443z"/>
</svg>
