<?xml version="1.0" encoding="utf-8"?>
<!-- Generator: Adobe Illustrator 15.0.0, SVG Export Plug-In . SVG Version: 6.00 Build 0)  -->
<!DOCTYPE svg PUBLIC "-//W3C//DTD SVG 1.1//EN" "http://www.w3.org/Graphics/SVG/1.1/DTD/svg11.dtd">
<svg version="1.1"
	 id="svg2" sodipodi:version="0.32" inkscape:version="0.46" sodipodi:docname="United States WIP.svg" inkscape:output_extension="org.inkscape.output.svg.inkscape" xmlns:dc="http://purl.org/dc/elements/1.1/" xmlns:cc="http://creativecommons.org/ns#" xmlns:rdf="http://www.w3.org/1999/02/22-rdf-syntax-ns#" xmlns:svg="http://www.w3.org/2000/svg" xmlns:sodipodi="http://sodipodi.sourceforge.net/DTD/sodipodi-0.dtd" xmlns:inkscape="http://www.inkscape.org/namespaces/inkscape"
	 xmlns="http://www.w3.org/2000/svg" xmlns:xlink="http://www.w3.org/1999/xlink" x="0px" y="0px" width="959px" height="593px"
	 viewBox="0 0 959 593" enable-background="new 0 0 959 593" xml:space="preserve">
<defs>
	
	
		<inkscape:perspective  id="perspective64" inkscape:persp3d-origin="479.5 : 197.66667 : 1" inkscape:vp_z="959 : 296.5 : 1" inkscape:vp_y="0 : 1000 : 0" inkscape:vp_x="0 : 296.5 : 1" sodipodi:type="inkscape:persp3d">
		</inkscape:perspective>
</defs>
<sodipodi:namedview  id="base" inkscape:pageopacity="0.0" inkscape:pageshadow="2" inkscape:window-width="1152" inkscape:window-height="814" showguides="true" inkscape:cy="298.13957" inkscape:cx="608.50443" inkscape:zoom="0.70710678" showgrid="false" pagecolor="#ffffff" bordercolor="#666666" borderopacity="1.0" objecttolerance="10.0" gridtolerance="10.0" guidetolerance="10.0" inkscape:guide-bbox="true" inkscape:current-layer="svg2" inkscape:window-y="-8" inkscape:window-x="-8">
	</sodipodi:namedview>
<path id="MS" sodipodi:nodetypes="ccccccccccccccccccccccccccccccccccccccccccccccccccc" fill="#269DD1" stroke="#FFFFFF" stroke-width="0.75" d="
	M631.559,459.345l-0.255,1.256h-5.173l-1.455-0.809l-2.104-0.323l-6.789,1.94l-1.776-0.811l-2.587,4.203l-1.104,0.778l-1.124-2.488
	l-1.143-3.887l-3.432-3.2l1.145-5.545l-0.688-0.914l-1.828,0.229l-7.919,0.873l-24.546,0.372l-0.77-2.226l0.873-8.377l3.115-5.673
	l5.229-9.146l-0.445-2.433l1.236-0.656l0.436-1.92l-2.315-2.079l-0.115-2.141l-1.835-4.121l-0.109-5.963l1.327-2.48l-0.223-3.415
	l-1.771-3.085l1.526-1.479l-1.57-2.499l0.457-1.652l1.577-6.526l2.486-2.037l-0.644-2.364l3.657-5.304l2.832-1.356l-0.221-1.674
	l-0.288-1.683l2.876-5.567l2.346-1.229l0.151-0.895l37.344-3.883l0.185,6.283l0.162,16.651l-0.809,31.039l-0.161,14.063
	l2.748,18.754L631.559,459.345z"/>
</svg>
