<?xml version="1.0" encoding="utf-8"?>
<!-- Generator: Adobe Illustrator 15.0.0, SVG Export Plug-In . SVG Version: 6.00 Build 0)  -->
<!DOCTYPE svg PUBLIC "-//W3C//DTD SVG 1.1//EN" "http://www.w3.org/Graphics/SVG/1.1/DTD/svg11.dtd">
<svg version="1.1"
	 id="svg2" sodipodi:version="0.32" inkscape:version="0.46" sodipodi:docname="United States WIP.svg" inkscape:output_extension="org.inkscape.output.svg.inkscape" xmlns:dc="http://purl.org/dc/elements/1.1/" xmlns:cc="http://creativecommons.org/ns#" xmlns:rdf="http://www.w3.org/1999/02/22-rdf-syntax-ns#" xmlns:svg="http://www.w3.org/2000/svg" xmlns:sodipodi="http://sodipodi.sourceforge.net/DTD/sodipodi-0.dtd" xmlns:inkscape="http://www.inkscape.org/namespaces/inkscape"
	 xmlns="http://www.w3.org/2000/svg" xmlns:xlink="http://www.w3.org/1999/xlink" x="0px" y="0px" width="959px" height="593px"
	 viewBox="0 0 959 593" enable-background="new 0 0 959 593" xml:space="preserve">
<defs>
	
	
		<inkscape:perspective  id="perspective64" inkscape:persp3d-origin="479.5 : 197.66667 : 1" inkscape:vp_z="959 : 296.5 : 1" inkscape:vp_y="0 : 1000 : 0" inkscape:vp_x="0 : 296.5 : 1" sodipodi:type="inkscape:persp3d">
		</inkscape:perspective>
</defs>
<sodipodi:namedview  id="base" inkscape:pageopacity="0.0" inkscape:pageshadow="2" inkscape:window-width="1152" inkscape:window-height="814" showguides="true" inkscape:cy="298.13957" inkscape:cx="608.50443" inkscape:zoom="0.70710678" showgrid="false" pagecolor="#ffffff" bordercolor="#666666" borderopacity="1.0" objecttolerance="10.0" gridtolerance="10.0" guidetolerance="10.0" inkscape:guide-bbox="true" inkscape:current-layer="svg2" inkscape:window-y="-8" inkscape:window-x="-8">
	</sodipodi:namedview>
<path id="NJ" sodipodi:nodetypes="ccccccccccccccccccccccccccccccccccccccccccccccccccc" fill="#269DD1" stroke="#FFFFFF" stroke-width="0.75" d="
	M829.679,188.46l-2.322,2.734v3.072l-1.94,3.071l-0.159,1.617l1.293,1.293l-0.161,2.425l-2.266,1.131l0.811,2.749l0.161,1.131
	l2.749,0.324l0.97,2.586l3.557,2.425l2.427,1.617v0.808l-2.983,2.697l-1.616,2.263l-1.455,2.748l-2.264,1.293l-0.462,1.603
	l-0.243,1.212l-0.608,2.607l1.094,2.244l3.231,2.91l4.852,2.263l4.041,0.647l0.162,1.455l-0.811,0.97l0.323,2.748h0.809l2.104-2.425
	l0.809-4.85l2.748-4.042l3.071-6.466l1.132-5.497l-0.646-1.132l-0.161-9.376l-1.616-3.395l-1.132,0.808l-2.748,0.323l-0.485-0.485
	l1.132-0.97l2.104-1.94l0.063-1.094l-0.385-3.434l0.573-2.748l-0.117-1.969l-2.808-1.75l-5.093-1.176l-4.139-1.381L829.679,188.46z"
	/>
</svg>
