<?xml version="1.0" encoding="utf-8"?>
<!-- Generator: Adobe Illustrator 15.0.0, SVG Export Plug-In . SVG Version: 6.00 Build 0)  -->
<!DOCTYPE svg PUBLIC "-//W3C//DTD SVG 1.1//EN" "http://www.w3.org/Graphics/SVG/1.1/DTD/svg11.dtd">
<svg version="1.1"
	 id="svg2" sodipodi:version="0.32" inkscape:version="0.46" sodipodi:docname="United States WIP.svg" inkscape:output_extension="org.inkscape.output.svg.inkscape" xmlns:dc="http://purl.org/dc/elements/1.1/" xmlns:cc="http://creativecommons.org/ns#" xmlns:rdf="http://www.w3.org/1999/02/22-rdf-syntax-ns#" xmlns:svg="http://www.w3.org/2000/svg" xmlns:sodipodi="http://sodipodi.sourceforge.net/DTD/sodipodi-0.dtd" xmlns:inkscape="http://www.inkscape.org/namespaces/inkscape"
	 xmlns="http://www.w3.org/2000/svg" xmlns:xlink="http://www.w3.org/1999/xlink" x="0px" y="0px" width="959px" height="593px"
	 viewBox="0 0 959 593" enable-background="new 0 0 959 593" xml:space="preserve">
<defs>
	
	
		<inkscape:perspective  id="perspective64" inkscape:persp3d-origin="479.5 : 197.66667 : 1" inkscape:vp_z="959 : 296.5 : 1" inkscape:vp_y="0 : 1000 : 0" inkscape:vp_x="0 : 296.5 : 1" sodipodi:type="inkscape:persp3d">
		</inkscape:perspective>
</defs>
<sodipodi:namedview  id="base" inkscape:pageopacity="0.0" inkscape:pageshadow="2" inkscape:window-width="1152" inkscape:window-height="814" showguides="true" inkscape:cy="298.13957" inkscape:cx="608.50443" inkscape:zoom="0.70710678" showgrid="false" pagecolor="#ffffff" bordercolor="#666666" borderopacity="1.0" objecttolerance="10.0" gridtolerance="10.0" guidetolerance="10.0" inkscape:guide-bbox="true" inkscape:current-layer="svg2" inkscape:window-y="-8" inkscape:window-x="-8">
	</sodipodi:namedview>
<path id="NY" fill="#269DD1" stroke="#FFFFFF" stroke-width="0.75" d="M830.379,188.746l-1.134-0.97l-2.586-0.161l-2.264-1.94
	l-1.631-6.129l-3.458,0.091l-2.443-2.708l-19.386,4.382l-43.002,8.73l-7.529,1.228l-0.736-6.468l1.428-1.125l1.294-1.132l0.97-1.617
	l1.778-1.131l1.938-1.778l0.485-1.617l2.102-2.748l1.134-0.97l-0.162-0.97l-1.293-3.072l-1.778-0.162l-1.94-6.143l2.91-1.778
	l4.365-1.455l4.041-1.293l3.233-0.485l6.305-0.162l1.939,1.293l1.615,0.162l2.104-1.293l2.587-1.131l5.173-0.485l2.102-1.778
	l1.778-3.233l1.616-1.94h2.102l1.94-1.131l0.161-2.264l-1.455-2.102l-0.323-1.455l1.132-2.102v-1.455h-1.776l-1.778-0.808
	l-0.81-1.132l-0.16-2.586l5.818-5.497l0.646-0.808l1.455-2.91l2.908-4.526l2.747-3.718l2.104-2.425l2.415-1.826l3.082-1.246
	l5.496-1.293l3.231,0.162l4.526-1.455l7.563-2.071l0.521,4.98l2.425,6.466l0.811,5.173l-0.972,3.88l2.586,4.527l0.811,2.102
	l-0.811,2.91l2.91,1.293l0.646,0.323l3.07,10.993l-0.536,5.06l-0.483,10.831l0.808,5.497l0.811,3.557l1.455,7.274v8.083
	l-1.134,2.264l1.841,1.993l0.797,1.678l-1.939,1.778l0.323,1.293l1.293-0.323l1.455-1.293l2.264-2.586l1.132-0.647l1.616,0.647
	l2.264,0.162l7.923-3.88l2.909-2.748l1.293-1.455l4.202,1.617l-3.395,3.556l-3.88,2.91l-7.113,5.335l-2.587,0.97l-5.818,1.94
	l-4.043,1.131l-1.175-0.533l-0.243-3.688l0.484-2.749l-0.161-2.102l-2.813-1.699l-4.526-0.97l-3.879-1.131L830.379,188.746z"/>
</svg>
