<?xml version="1.0" encoding="utf-8"?>
<!-- Generator: Adobe Illustrator 15.0.0, SVG Export Plug-In . SVG Version: 6.00 Build 0)  -->
<!DOCTYPE svg PUBLIC "-//W3C//DTD SVG 1.1//EN" "http://www.w3.org/Graphics/SVG/1.1/DTD/svg11.dtd">
<svg version="1.1"
	 id="svg2" sodipodi:version="0.32" inkscape:version="0.46" sodipodi:docname="United States WIP.svg" inkscape:output_extension="org.inkscape.output.svg.inkscape" xmlns:dc="http://purl.org/dc/elements/1.1/" xmlns:cc="http://creativecommons.org/ns#" xmlns:rdf="http://www.w3.org/1999/02/22-rdf-syntax-ns#" xmlns:svg="http://www.w3.org/2000/svg" xmlns:sodipodi="http://sodipodi.sourceforge.net/DTD/sodipodi-0.dtd" xmlns:inkscape="http://www.inkscape.org/namespaces/inkscape"
	 xmlns="http://www.w3.org/2000/svg" xmlns:xlink="http://www.w3.org/1999/xlink" x="0px" y="0px" width="959px" height="593px"
	 viewBox="0 0 959 593" enable-background="new 0 0 959 593" xml:space="preserve">
<defs>
	
	
		<inkscape:perspective  id="perspective64" inkscape:persp3d-origin="479.5 : 197.66667 : 1" inkscape:vp_z="959 : 296.5 : 1" inkscape:vp_y="0 : 1000 : 0" inkscape:vp_x="0 : 296.5 : 1" sodipodi:type="inkscape:persp3d">
		</inkscape:perspective>
</defs>
<sodipodi:namedview  id="base" inkscape:pageopacity="0.0" inkscape:pageshadow="2" inkscape:window-width="1152" inkscape:window-height="814" showguides="true" inkscape:cy="298.13957" inkscape:cx="608.50443" inkscape:zoom="0.70710678" showgrid="false" pagecolor="#ffffff" bordercolor="#666666" borderopacity="1.0" objecttolerance="10.0" gridtolerance="10.0" guidetolerance="10.0" inkscape:guide-bbox="true" inkscape:current-layer="svg2" inkscape:window-y="-8" inkscape:window-x="-8">
	</sodipodi:namedview>
<path id="NC" sodipodi:nodetypes="cccccccccccccccccccccccccccccccccccccccccccccccccccccccccccscccccccccccccccccccccccccccccccc" fill="#269DD1" stroke="#FFFFFF" stroke-width="0.75" d="
	M834.982,294.315l2.085,4.917l3.557,6.467l2.427,2.425l0.646,2.265l-2.425,0.16l0.808,0.646l-0.321,4.203l-2.586,1.293l-0.646,2.103
	l-1.294,2.909l-3.718,1.617l-2.425-0.323l-1.455-0.161l-1.617-1.294l0.323,1.294v0.969h1.938l0.811,1.295l-1.94,6.305h4.203
	l0.646,1.615l2.266-2.263l1.293-0.485l-1.939,3.559l-3.071,4.852h-1.294l-1.132-0.484l-2.748,0.646l-5.173,2.425l-6.467,5.336
	l-3.396,4.688l-1.938,6.467l-0.485,2.427l-4.688,0.483L799.766,362l-9.946-8.202L777.21,346.2l-2.91-0.81l-12.609,1.455l-4.276,0.75
	l-1.615-3.232l-2.972-2.116l-16.487,0.485l-7.275,0.808l-9.053,4.526l-6.145,2.586l-21.178,2.588l0.5-4.055l1.778-1.455l2.748-0.646
	l0.646-3.719l4.203-2.748l3.88-1.455l4.203-3.557l4.365-2.104l0.646-3.07l3.881-3.879l0.646-0.162c0,0,0,1.133,0.809,1.133
	c0.811,0,1.939,0.322,1.939,0.322l2.264-3.559l2.104-0.646l2.263,0.323l1.617-3.557l2.91-2.587l0.482-2.103l0.188-3.647l4.274-0.022
	l7.199-0.854l15.757-2.252l15.138-2.088l21.641-4.72l19.983-4.258l11.177-2.406L834.982,294.315z M839.252,327.521l2.586-2.506
	l3.15-2.588l1.536-0.646l0.161-2.021l-0.646-6.143l-1.454-2.345l-0.646-1.858l0.729-0.242l2.748,5.496l0.402,4.445l-0.161,3.396
	l-3.396,1.536l-2.829,2.424l-1.131,1.214L839.252,327.521z"/>
</svg>
