<?xml version="1.0" encoding="utf-8"?>
<!-- Generator: Adobe Illustrator 15.0.0, SVG Export Plug-In . SVG Version: 6.00 Build 0)  -->
<!DOCTYPE svg PUBLIC "-//W3C//DTD SVG 1.1//EN" "http://www.w3.org/Graphics/SVG/1.1/DTD/svg11.dtd">
<svg version="1.1"
	 id="svg2" sodipodi:version="0.32" inkscape:version="0.46" sodipodi:docname="United States WIP.svg" inkscape:output_extension="org.inkscape.output.svg.inkscape" xmlns:dc="http://purl.org/dc/elements/1.1/" xmlns:cc="http://creativecommons.org/ns#" xmlns:rdf="http://www.w3.org/1999/02/22-rdf-syntax-ns#" xmlns:svg="http://www.w3.org/2000/svg" xmlns:sodipodi="http://sodipodi.sourceforge.net/DTD/sodipodi-0.dtd" xmlns:inkscape="http://www.inkscape.org/namespaces/inkscape"
	 xmlns="http://www.w3.org/2000/svg" xmlns:xlink="http://www.w3.org/1999/xlink" x="0px" y="0px" width="959px" height="593px"
	 viewBox="0 0 959 593" enable-background="new 0 0 959 593" xml:space="preserve">
<defs>
	
	
		<inkscape:perspective  id="perspective64" inkscape:persp3d-origin="479.5 : 197.66667 : 1" inkscape:vp_z="959 : 296.5 : 1" inkscape:vp_y="0 : 1000 : 0" inkscape:vp_x="0 : 296.5 : 1" sodipodi:type="inkscape:persp3d">
		</inkscape:perspective>
</defs>
<sodipodi:namedview  id="base" inkscape:pageopacity="0.0" inkscape:pageshadow="2" inkscape:window-width="1152" inkscape:window-height="814" showguides="true" inkscape:cy="298.13957" inkscape:cx="608.50443" inkscape:zoom="0.70710678" showgrid="false" pagecolor="#ffffff" bordercolor="#666666" borderopacity="1.0" objecttolerance="10.0" gridtolerance="10.0" guidetolerance="10.0" inkscape:guide-bbox="true" inkscape:current-layer="svg2" inkscape:window-y="-8" inkscape:window-x="-8">
	</sodipodi:namedview>
<path id="OR" sodipodi:nodetypes="ccccccccccccccccccccccccccccccccccccccccccccccccccc" fill="#269DD1" stroke="#FFFFFF" stroke-width="0.75" d="
	M148.722,175.531l8.85-34.801l1.053-4.229l2.354-5.623l-0.615-1.163l-2.516-0.046l-1.281-1.67l0.457-1.464l0.504-3.247l4.458-5.487
	l1.829-1.1l1.145-1.143l1.484-3.566l4.047-5.669l3.565-3.862l0.229-3.451l-3.271-2.469l-1.783-4.643l-12.664-3.612l-15.089-3.543
	l-15.432,0.114l-0.458-1.372l-5.486,2.058l-4.458-0.572l-2.398-1.6l-1.26,0.686l-4.687-0.229l-1.715-1.372l-5.261-2.058l-0.8,0.114
	l-4.344-1.486l-1.943,1.829l-6.173-0.343l-5.942-4.115l0.686-0.8l0.229-7.773l-2.287-3.887l-4.114-0.572l-0.688-2.515l-2.354-0.467
	l-5.799,2.059l-2.265,6.466L61.3,78.932l-3.233,6.466l-5.012,14.064l-6.466,13.58l-8.083,12.61l-1.94,2.91l-0.809,8.568l0.387,12.08
	L148.722,175.531z"/>
</svg>
