<?xml version="1.0" encoding="utf-8"?>
<!-- Generator: Adobe Illustrator 15.0.0, SVG Export Plug-In . SVG Version: 6.00 Build 0)  -->
<!DOCTYPE svg PUBLIC "-//W3C//DTD SVG 1.1//EN" "http://www.w3.org/Graphics/SVG/1.1/DTD/svg11.dtd">
<svg version="1.1"
	 id="svg2" sodipodi:version="0.32" inkscape:version="0.46" sodipodi:docname="United States WIP.svg" inkscape:output_extension="org.inkscape.output.svg.inkscape" xmlns:dc="http://purl.org/dc/elements/1.1/" xmlns:cc="http://creativecommons.org/ns#" xmlns:rdf="http://www.w3.org/1999/02/22-rdf-syntax-ns#" xmlns:svg="http://www.w3.org/2000/svg" xmlns:sodipodi="http://sodipodi.sourceforge.net/DTD/sodipodi-0.dtd" xmlns:inkscape="http://www.inkscape.org/namespaces/inkscape"
	 xmlns="http://www.w3.org/2000/svg" xmlns:xlink="http://www.w3.org/1999/xlink" x="0px" y="0px" width="959px" height="593px"
	 viewBox="0 0 959 593" enable-background="new 0 0 959 593" xml:space="preserve">
<defs>
	
	
		<inkscape:perspective  id="perspective64" inkscape:persp3d-origin="479.5 : 197.66667 : 1" inkscape:vp_z="959 : 296.5 : 1" inkscape:vp_y="0 : 1000 : 0" inkscape:vp_x="0 : 296.5 : 1" sodipodi:type="inkscape:persp3d">
		</inkscape:perspective>
</defs>
<sodipodi:namedview  id="base" inkscape:pageopacity="0.0" inkscape:pageshadow="2" inkscape:window-width="1152" inkscape:window-height="814" showguides="true" inkscape:cy="298.13957" inkscape:cx="608.50443" inkscape:zoom="0.70710678" showgrid="false" pagecolor="#ffffff" bordercolor="#666666" borderopacity="1.0" objecttolerance="10.0" gridtolerance="10.0" guidetolerance="10.0" inkscape:guide-bbox="true" inkscape:current-layer="svg2" inkscape:window-y="-8" inkscape:window-x="-8">
	</sodipodi:namedview>
<path id="PA" sodipodi:nodetypes="cccccccccccccccccccccccccccccccccccccccccccc" fill="#269DD1" stroke="#FFFFFF" stroke-width="0.75" d="
	M825.121,224.692l1.311-0.271l2.329-1.253l1.212-2.483l1.617-2.263l3.231-3.071v-0.809l-2.425-1.617l-3.557-2.425l-0.973-2.586
	l-2.748-0.323l-0.159-1.132l-0.811-2.748l2.263-1.132l0.162-2.425l-1.293-1.293l0.161-1.616l1.94-3.072v-3.072l2.695-2.646
	l-0.92-0.675l-2.522-0.193l-2.294-1.94l-1.553-6.116l-3.504,0.101l-2.455-2.704l-18.092,4.198l-43.001,8.729l-8.892,1.455
	l-0.621-6.521l-5.362,5.068l-1.293,0.485l-4.202,3.009l2.91,19.138l2.481,9.729l3.57,19.261l3.271-0.638l11.942-1.502l37.928-7.665
	l14.876-2.823l8.301-1.623l0.267-0.239l2.104-1.616L825.121,224.692z"/>
</svg>
