<?xml version="1.0" encoding="utf-8"?>
<!-- Generator: Adobe Illustrator 15.0.0, SVG Export Plug-In . SVG Version: 6.00 Build 0)  -->
<!DOCTYPE svg PUBLIC "-//W3C//DTD SVG 1.1//EN" "http://www.w3.org/Graphics/SVG/1.1/DTD/svg11.dtd">
<svg version="1.1"
	 id="svg2" sodipodi:version="0.32" inkscape:version="0.46" sodipodi:docname="United States WIP.svg" inkscape:output_extension="org.inkscape.output.svg.inkscape" xmlns:dc="http://purl.org/dc/elements/1.1/" xmlns:cc="http://creativecommons.org/ns#" xmlns:rdf="http://www.w3.org/1999/02/22-rdf-syntax-ns#" xmlns:svg="http://www.w3.org/2000/svg" xmlns:sodipodi="http://sodipodi.sourceforge.net/DTD/sodipodi-0.dtd" xmlns:inkscape="http://www.inkscape.org/namespaces/inkscape"
	 xmlns="http://www.w3.org/2000/svg" xmlns:xlink="http://www.w3.org/1999/xlink" x="0px" y="0px" width="959px" height="593px"
	 viewBox="0 0 959 593" enable-background="new 0 0 959 593" xml:space="preserve">
<defs>
	
	
		<inkscape:perspective  id="perspective64" inkscape:persp3d-origin="479.5 : 197.66667 : 1" inkscape:vp_z="959 : 296.5 : 1" inkscape:vp_y="0 : 1000 : 0" inkscape:vp_x="0 : 296.5 : 1" sodipodi:type="inkscape:persp3d">
		</inkscape:perspective>
</defs>
<sodipodi:namedview  id="base" inkscape:pageopacity="0.0" inkscape:pageshadow="2" inkscape:window-width="1152" inkscape:window-height="814" showguides="true" inkscape:cy="298.13957" inkscape:cx="608.50443" inkscape:zoom="0.70710678" showgrid="false" pagecolor="#ffffff" bordercolor="#666666" borderopacity="1.0" objecttolerance="10.0" gridtolerance="10.0" guidetolerance="10.0" inkscape:guide-bbox="true" inkscape:current-layer="svg2" inkscape:window-y="-8" inkscape:window-x="-8">
	</sodipodi:namedview>
<path id="SC" sodipodi:nodetypes="cccccccccccccccccccccccccccccccccccccccccccccccccccccc" fill="#269DD1" stroke="#FFFFFF" stroke-width="0.75" d="
	M764.943,408.165l-1.776,0.97l-2.587-1.293l-0.646-2.103l-1.293-3.556l-2.264-2.104l-2.589-0.646l-1.614-4.851l-2.748-5.979
	l-4.203-1.939l-2.104-1.939l-1.294-2.588l-2.102-1.938l-2.263-1.293l-2.266-2.91l-3.07-2.266l-4.525-1.775l-0.485-1.455l-2.425-2.91
	l-0.484-1.455l-3.396-5.174l-3.396,0.162l-4.042-2.425l-1.294-1.296l-0.321-1.775l0.809-1.939l2.264-0.971l-0.512-2.289l5.771-2.336
	l9.113-4.59l7.774-0.811l16.114-0.422l2.639,1.877l1.679,3.358l4.305-0.61l12.607-1.455l2.91,0.811l12.609,7.6l10.106,8.123
	l-5.422,5.457l-2.586,6.144l-0.485,6.306l-1.614,0.809l-1.134,2.748l-2.425,0.646l-2.102,3.557l-2.748,2.748l-2.264,3.396
	l-1.616,0.809l-3.559,3.396l-2.909,0.162l0.971,3.23l-5.013,5.496L764.943,408.165z"/>
</svg>
