<?xml version="1.0" encoding="utf-8"?>
<!-- Generator: Adobe Illustrator 15.0.0, SVG Export Plug-In . SVG Version: 6.00 Build 0)  -->
<!DOCTYPE svg PUBLIC "-//W3C//DTD SVG 1.1//EN" "http://www.w3.org/Graphics/SVG/1.1/DTD/svg11.dtd">
<svg version="1.1"
	 id="svg2" sodipodi:version="0.32" inkscape:version="0.46" sodipodi:docname="United States WIP.svg" inkscape:output_extension="org.inkscape.output.svg.inkscape" xmlns:dc="http://purl.org/dc/elements/1.1/" xmlns:cc="http://creativecommons.org/ns#" xmlns:rdf="http://www.w3.org/1999/02/22-rdf-syntax-ns#" xmlns:svg="http://www.w3.org/2000/svg" xmlns:sodipodi="http://sodipodi.sourceforge.net/DTD/sodipodi-0.dtd" xmlns:inkscape="http://www.inkscape.org/namespaces/inkscape"
	 xmlns="http://www.w3.org/2000/svg" xmlns:xlink="http://www.w3.org/1999/xlink" x="0px" y="0px" width="959px" height="593px"
	 viewBox="0 0 959 593" enable-background="new 0 0 959 593" xml:space="preserve">
<defs>
	
	
		<inkscape:perspective  id="perspective64" inkscape:persp3d-origin="479.5 : 197.66667 : 1" inkscape:vp_z="959 : 296.5 : 1" inkscape:vp_y="0 : 1000 : 0" inkscape:vp_x="0 : 296.5 : 1" sodipodi:type="inkscape:persp3d">
		</inkscape:perspective>
</defs>
<sodipodi:namedview  id="base" inkscape:pageopacity="0.0" inkscape:pageshadow="2" inkscape:window-width="1152" inkscape:window-height="814" showguides="true" inkscape:cy="298.13957" inkscape:cx="608.50443" inkscape:zoom="0.70710678" showgrid="false" pagecolor="#ffffff" bordercolor="#666666" borderopacity="1.0" objecttolerance="10.0" gridtolerance="10.0" guidetolerance="10.0" inkscape:guide-bbox="true" inkscape:current-layer="svg2" inkscape:window-y="-8" inkscape:window-x="-8">
	</sodipodi:namedview>
<path id="TN" sodipodi:nodetypes="ccccccccccccccccccccccccccccccsccccccccccccc" fill="#269DD1" stroke="#FFFFFF" stroke-width="0.75" d="
	M696.678,318.254l-51.896,5.012l-15.76,1.778l-4.621,0.513l-3.868-0.025l-0.221,4.101l-8.186,0.265l-6.951,0.646l-8.091-0.125
	l-1.414,7.073l-1.696,5.479l-3.293,2.752l-1.35,4.381l-0.322,2.586l-4.042,2.265l1.455,3.558l-0.972,4.364l-0.969,0.789
	l108.158-10.407l0.403-3.955l1.812-1.49l2.834-0.75l0.672-3.717l4.101-2.705l4.047-1.492l4.083-3.57l4.437-2.025l0.521-3.066
	l4.063-3.983l0.552-0.114c0,0,0.03,1.133,0.841,1.133c0.808,0,1.938,0.354,1.938,0.354l2.266-3.588l2.068-0.646l2.274,0.297
	l1.599-3.533l2.955-2.645l0.422-1.939l0.311-3.711l-2.146-0.198l-2.602,2.026l-6.993,0.029l-18.358,2.387L696.678,318.254z"/>
</svg>
