<?xml version="1.0" encoding="utf-8"?>
<!-- Generator: Adobe Illustrator 15.0.0, SVG Export Plug-In . SVG Version: 6.00 Build 0)  -->
<!DOCTYPE svg PUBLIC "-//W3C//DTD SVG 1.1//EN" "http://www.w3.org/Graphics/SVG/1.1/DTD/svg11.dtd">
<svg version="1.1"
	 id="svg2" sodipodi:version="0.32" inkscape:version="0.46" sodipodi:docname="United States WIP.svg" inkscape:output_extension="org.inkscape.output.svg.inkscape" xmlns:dc="http://purl.org/dc/elements/1.1/" xmlns:cc="http://creativecommons.org/ns#" xmlns:rdf="http://www.w3.org/1999/02/22-rdf-syntax-ns#" xmlns:svg="http://www.w3.org/2000/svg" xmlns:sodipodi="http://sodipodi.sourceforge.net/DTD/sodipodi-0.dtd" xmlns:inkscape="http://www.inkscape.org/namespaces/inkscape"
	 xmlns="http://www.w3.org/2000/svg" xmlns:xlink="http://www.w3.org/1999/xlink" x="0px" y="0px" width="959px" height="593px"
	 viewBox="0 0 959 593" enable-background="new 0 0 959 593" xml:space="preserve">
<defs>
	
	
		<inkscape:perspective  id="perspective64" inkscape:persp3d-origin="479.5 : 197.66667 : 1" inkscape:vp_z="959 : 296.5 : 1" inkscape:vp_y="0 : 1000 : 0" inkscape:vp_x="0 : 296.5 : 1" sodipodi:type="inkscape:persp3d">
		</inkscape:perspective>
</defs>
<sodipodi:namedview  id="base" inkscape:pageopacity="0.0" inkscape:pageshadow="2" inkscape:window-width="1152" inkscape:window-height="814" showguides="true" inkscape:cy="298.13957" inkscape:cx="608.50443" inkscape:zoom="0.70710678" showgrid="false" pagecolor="#ffffff" bordercolor="#666666" borderopacity="1.0" objecttolerance="10.0" gridtolerance="10.0" guidetolerance="10.0" inkscape:guide-bbox="true" inkscape:current-layer="svg2" inkscape:window-y="-8" inkscape:window-x="-8">
	</sodipodi:namedview>
<path id="WV" sodipodi:nodetypes="ccccccccccccccccccccccccccccccccccccccccscccccccccccccccccccccccccccccccccccccccccc" fill="#269DD1" stroke="#FFFFFF" stroke-width="0.75" d="
	M761.185,238.967l1.112,4.945l1.084,6.031l2.13-2.581l2.264-3.072l2.538-0.615l1.455-1.455l1.778-2.586l1.442,0.646l2.91-0.323
	l2.587-2.102l2.007-1.453l1.847-0.485l1.304,1.016l3.644,1.822l1.94,1.778l1.374,1.293l-0.762,5.555l-5.835-2.542l-4.245-1.622
	l-0.104,5.178l-2.747,5.537l-2.529,2.427l-1.191,2.75l-2.646,0.5l-0.896,3.602l-1.044,3.95l-3.968,0.341l-2.324-2.439l-1.07,0.56
	l-0.633,5.47l-1.351,3.535l-4.958,10.955l0.896,1.161l-0.206,1.908l-2.809,3.885l-1.811-0.544l-2.968,2.16l-2.543-0.572
	l-1.999,4.556c0,0-3.259,1.43-3.923,1.367c-0.16-0.015-2.469-1.248-2.469-1.248l-2.339,1.379l-2.407,1.045l-3.745-0.89l-1.121-1.168
	l-2.192-3.023l-3.143-1.988l-1.712-3.623l-4.285-3.468l-0.646-2.263l-2.587-1.455l-0.809-1.617l-0.242-5.254l2.183-0.081
	l1.939-0.808l0.161-2.748l1.617-1.455l0.161-5.012l0.971-3.88l1.293-0.646l1.293,1.132l0.485,1.778l1.776-0.97l0.484-1.617
	l-1.131-1.778v-2.425l0.97-1.293l2.264-3.395l1.294-1.455l2.103,0.485l2.263-1.617l3.072-3.395l2.263-3.88l0.323-5.658l0.485-5.011
	v-4.688l-1.133-3.071l0.971-1.455l1.284-1.293l3.489,19.827l4.632-0.751L761.185,238.967z"/>
</svg>
